<?xml version="1.0" encoding="UTF-8"?>
<svg id="Layer_1" data-name="Layer 1" xmlns="http://www.w3.org/2000/svg" xmlns:xlink="http://www.w3.org/1999/xlink" viewBox="0 0 338.94 147.96">
  <defs>
    <style>
      .cls-1 {
        fill: url(#linear-gradient);
      }

      .cls-2 {
        fill: #fff;
      }
    </style>
    <linearGradient id="linear-gradient" x1="189.57" y1="73.98" x2="310.15" y2="73.98" gradientUnits="userSpaceOnUse">
      <stop offset="0" stop-color="#7eff55"/>
      <stop offset="1" stop-color="#00aa0b"/>
    </linearGradient>
  </defs>
  <path class="cls-1" d="M215.74,38.71c0,7.23-5.86,13.09-13.09,13.09s-13.09-5.86-13.09-13.09,5.86-13.09,13.09-13.09,13.09,5.86,13.09,13.09ZM202.66,60.89c-7.23,0-13.09,5.86-13.09,13.09s5.86,13.09,13.09,13.09,13.09-5.86,13.09-13.09-5.86-13.09-13.09-13.09ZM202.66,96.17c-7.23,0-13.09,5.86-13.09,13.09s5.86,13.09,13.09,13.09,13.09-5.86,13.09-13.09-5.86-13.09-13.09-13.09ZM297.06,25.62c-7.23,0-13.09,5.86-13.09,13.09s5.86,13.09,13.09,13.09,13.09-5.86,13.09-13.09-5.86-13.09-13.09-13.09ZM297.06,60.89c-7.23,0-13.09,5.86-13.09,13.09s5.86,13.09,13.09,13.09,13.09-5.86,13.09-13.09-5.86-13.09-13.09-13.09ZM297.06,96.17c-7.23,0-13.09,5.86-13.09,13.09s5.86,13.09,13.09,13.09,13.09-5.86,13.09-13.09-5.86-13.09-13.09-13.09ZM249.86,25.62c-7.23,0-13.09,5.86-13.09,13.09s5.86,13.09,13.09,13.09,13.09-5.86,13.09-13.09-5.86-13.09-13.09-13.09ZM249.86,60.89c-7.23,0-13.09,5.86-13.09,13.09s5.86,13.09,13.09,13.09,13.09-5.86,13.09-13.09-5.86-13.09-13.09-13.09ZM249.86,96.17c-7.23,0-13.09,5.86-13.09,13.09s5.86,13.09,13.09,13.09,13.09-5.86,13.09-13.09-5.86-13.09-13.09-13.09Z"/>
  <path class="cls-2" d="M143.34,122.34H31.44c-1.46,0-2.64-1.36-2.64-3.03V28.65c0-1.68,1.18-3.03,2.64-3.03h111.9c17.99,0,29.89,10.77,29.89,28.11,0,7.2-2.07,13.3-5.77,18.06-.94,1.21-.93,2.89.02,4.08,3.69,4.64,5.75,10.63,5.75,17.81,0,17.35-11.91,28.65-29.89,28.65ZM143.34,65.7c9.27,0,14.21-4.21,14.21-11.7s-4.94-11.7-14.21-11.7H45.88c-1.46,0-2.64,1.36-2.64,3.03v17.33c0,1.68,1.18,3.03,2.64,3.03h97.47ZM143.34,105.79c9.27,0,14.21-4.34,14.21-11.7s-4.94-11.83-14.21-11.83H45.88c-1.46,0-2.64,1.36-2.64,3.03v17.46c0,1.68,1.18,3.03,2.64,3.03h97.47Z"/>
</svg>